<svg width="171" height="21" viewBox="0 0 171 21" fill="none" xmlns="http://www.w3.org/2000/svg">
<g clip-path="url(#clip0_5_1920)">
<path d="M35.8817 15.1496L32.1475 5.85059H33.4606L36.6056 13.6735H36.664L39.7198 5.85059H41.0181L37.2697 15.1496H35.8817Z" fill="white"/>
<path d="M51.4945 5.85034H50.21V15.1494H51.4945V5.85034Z" fill="white"/>
<path d="M65.544 5.67334C68.2009 5.67334 69.7066 7.31172 69.8838 9.7029L68.6444 9.76202C68.5409 8.04942 67.463 6.76593 65.5443 6.76593C63.655 6.76593 62.2972 8.21197 62.2972 10.5C62.2972 12.788 63.6543 14.2342 65.544 14.2342C67.4628 14.2342 68.5407 12.95 68.6441 11.2381L69.8836 11.2973C69.7063 13.6881 68.2006 15.3268 65.5437 15.3268C62.9756 15.3268 60.9829 13.3637 60.9829 10.5C60.9829 7.63626 62.9756 5.67334 65.5437 5.67334" fill="white"/>
<path d="M85.9833 15.1496H79.3555V5.85059H85.8504V6.91311H80.5958V9.83597H84.7725V10.8837H80.5958V14.0865H85.9833V15.1496Z" fill="white"/>
<path d="M98.4528 15.1496L94.7188 5.85059H96.0317L99.1767 13.6735H99.2353L102.291 5.85059H103.589L99.8409 15.1496H98.4528Z" fill="white"/>
<path d="M119.409 15.1496H112.781V5.85059H119.276V6.91311H114.021V9.83597H118.198V10.8837H114.021V14.0865H119.409V15.1496Z" fill="white"/>
<path d="M132.689 10.3819C134.268 10.3819 134.977 9.79166 134.977 8.63981C134.977 7.57729 134.268 6.89843 132.689 6.89843H130.239V10.3819H132.689ZM135.066 15.1496C134.889 14.8984 134.755 14.2201 134.681 13.1274C134.623 12.0939 134.136 11.4001 132.866 11.4001H130.239V15.1496H128.984V5.85059H132.763C135.125 5.85059 136.261 6.94274 136.261 8.5955C136.261 10.0274 135.287 10.7802 134.151 10.9132C135.287 11.1348 135.834 11.8285 135.922 12.922C136.04 14.2792 136.084 14.8111 136.394 15.1503L135.066 15.1496Z" fill="white"/>
<path d="M146.517 11.7546C146.591 13.4524 147.756 14.3235 149.321 14.3235C150.709 14.3235 151.579 13.7325 151.579 12.7136C151.579 11.8574 151.019 11.4444 149.808 11.208L147.963 10.854C146.591 10.5874 145.646 9.84943 145.646 8.40353C145.646 6.7794 146.93 5.67285 148.967 5.67285C151.299 5.67285 152.643 6.91232 152.657 9.00859L151.491 9.06771C151.447 7.53248 150.516 6.662 148.981 6.662C147.638 6.662 146.885 7.29613 146.885 8.32959C146.885 9.24494 147.49 9.53985 148.568 9.74671L150.251 10.0711C151.948 10.3962 152.805 11.1342 152.805 12.6251C152.805 14.3372 151.328 15.3263 149.321 15.3263C147.033 15.3263 145.365 14.0717 145.365 11.828L146.517 11.7546Z" fill="white"/>
<path d="M165.849 7.26724H165.908L167.606 11.4002H164.181L165.849 7.26724ZM165.23 5.85083L161.436 15.1498H162.691L163.783 12.419H168.019L169.142 15.1498H170.499L166.632 5.85083H165.23Z" fill="white"/>
<path d="M8.79952 18.2284C8.15317 18.5735 7.43141 18.7532 6.69869 18.7514C5.50865 18.7514 4.39071 18.2892 3.55086 17.4495C2.32692 16.2257 1.96704 14.4618 2.4681 12.9191C2.51901 12.7636 2.57817 12.6109 2.64533 12.4617C2.65004 12.4511 2.65488 12.4411 2.65958 12.4304C2.69206 12.3602 2.72626 12.2904 2.76301 12.2213C2.76422 12.2184 2.7656 12.2157 2.76714 12.213C2.9738 11.8224 3.23794 11.465 3.55072 11.1528L4.46422 10.2392L10.239 4.46432L9.58666 3.81196C9.36638 3.59276 9.12195 3.39924 8.85808 3.23511L4.13056 7.96261L2.24543 9.84775C1.95045 10.1429 1.68541 10.4666 1.45416 10.814C1.45402 10.8135 1.45402 10.8131 1.45416 10.8127C1.44234 10.8305 1.43108 10.8487 1.41926 10.8665C1.40629 10.8872 1.39333 10.9073 1.38093 10.9274C1.35244 10.973 1.32394 11.0184 1.29545 11.0644C1.28662 11.0787 1.27892 11.0929 1.27009 11.1072C1.23932 11.1597 1.20926 11.213 1.17962 11.2662C1.17549 11.2733 1.17193 11.2804 1.16837 11.2868C0.664597 12.2115 0.40183 13.2481 0.404314 14.3011C0.404029 15.9848 1.05824 17.5662 2.24543 18.7544C3.43261 19.9426 5.01486 20.5957 6.69869 20.5957C7.95981 20.5957 9.16338 20.2294 10.1864 19.5468C9.97621 19.3817 9.77593 19.2043 9.58666 19.0155L8.79952 18.2284Z" fill="white"/>
<path d="M12.2002 2.77162C13.0434 2.32317 14.0082 2.15682 14.9528 2.297C15.8975 2.43718 16.7724 2.87651 17.449 3.55049C18.7141 4.81632 19.0563 6.65942 18.4766 8.23768C18.4566 8.2921 18.4359 8.34638 18.4134 8.39966C18.407 8.41562 18.401 8.43157 18.3944 8.44682C18.3659 8.51364 18.336 8.57931 18.3047 8.64485C18.3 8.65425 18.2953 8.66323 18.2904 8.67263C18.2135 8.82851 18.1273 8.97965 18.0323 9.12525C18.0222 9.1412 18.0115 9.15716 18.0015 9.17312C17.9938 9.18437 17.9861 9.1962 17.9779 9.20745C17.9643 9.22811 17.9501 9.24877 17.936 9.26886C17.9088 9.30789 17.879 9.34565 17.8505 9.38411C17.8452 9.39181 17.8392 9.39836 17.834 9.40648C17.818 9.42785 17.8021 9.44922 17.7855 9.46974C17.7519 9.51248 17.7164 9.55365 17.6804 9.59568L17.6714 9.60622C17.6555 9.6246 17.6402 9.64412 17.6235 9.66235C17.5674 9.72504 17.5096 9.78715 17.4493 9.84756L16.7968 10.4998L15.1024 12.1941L10.7607 16.5357L11.4131 17.1882C11.6329 17.4077 11.877 17.6015 12.1407 17.7656L17.7656 12.141L18.0327 11.8733L18.2129 11.6931L18.7543 11.1517C19.0494 10.8567 19.3147 10.5334 19.5464 10.1863C19.5506 10.1798 19.5541 10.1734 19.5583 10.1674C19.5812 10.1331 19.6031 10.0983 19.6249 10.0634C19.6433 10.0349 19.6615 10.0064 19.6788 9.97792C19.6983 9.946 19.7165 9.91409 19.7358 9.88218C19.8203 9.738 19.8989 9.59079 19.9716 9.44053C19.9774 9.42871 19.9834 9.41759 19.9892 9.40577C20.0123 9.35662 20.0342 9.30704 20.056 9.25803C20.0637 9.24079 20.072 9.22426 20.0791 9.20717C20.1003 9.15816 20.1204 9.10901 20.14 9.06C20.1476 9.04233 20.1542 9.02395 20.1619 9.00629C20.1813 8.95657 20.1996 8.90656 20.218 8.85727L20.2374 8.80242C20.2552 8.75213 20.2723 8.70127 20.2888 8.65055C20.2948 8.63274 20.3001 8.61507 20.3061 8.59726C20.322 8.54583 20.338 8.49383 20.3527 8.44055C20.3574 8.42345 20.3622 8.40636 20.3669 8.38912C20.3811 8.33598 20.3954 8.28284 20.4088 8.22956C20.4106 8.222 20.4129 8.21531 20.4148 8.20719C20.5357 7.7129 20.5967 7.20589 20.5967 6.69703C20.5967 5.01278 19.9426 3.43153 18.7553 2.24378C17.5264 1.01771 15.9135 0.403812 14.3005 0.403812C13.0601 0.402453 11.8471 0.768022 10.814 1.45451C11.0241 1.61906 11.2242 1.79604 11.4131 1.98449L12.2002 2.77162Z" fill="white"/>
<path d="M19.0152 11.4136L18.2267 12.2019C19.1261 13.8861 18.8678 16.0312 17.4492 17.4495C16.6095 18.2892 15.4914 18.7512 14.3006 18.7512C13.1099 18.7512 11.9918 18.2892 11.1521 17.4495L4.46383 10.7612L3.81147 11.4136C3.59169 11.6331 3.39759 11.8768 3.23291 12.1402L9.84724 18.7542C11.0351 19.942 12.6164 20.5962 14.3006 20.5962C15.9849 20.5962 17.5667 19.942 18.7539 18.7542C19.9411 17.5665 20.5958 15.9849 20.5958 14.301C20.5958 13.0399 20.2288 11.8363 19.5463 10.8127C19.3815 11.0234 19.2041 11.2241 19.0152 11.4136Z" fill="white"/>
<path d="M1.98449 9.58642L2.77276 8.79815C1.87336 7.11404 2.13166 4.96947 3.55049 3.55064C4.3902 2.71093 5.50828 2.24877 6.69903 2.24877C7.49637 2.24683 8.27948 2.45999 8.96583 2.86579C9.04314 2.91176 9.11913 2.96001 9.19378 3.01054C9.20261 3.01695 9.21144 3.0235 9.22099 3.02935C9.28125 3.07209 9.34095 3.11483 9.40007 3.15999L9.45563 3.20273C9.50635 3.2429 9.55536 3.28365 9.60451 3.32568C9.62275 3.34163 9.64113 3.35702 9.65951 3.37355C9.72333 3.43053 9.78644 3.48937 9.84799 3.55021L10.6316 4.33378L16.5367 10.2389L17.1892 9.58657C17.2394 9.53642 17.2872 9.48499 17.3345 9.43298C17.3522 9.41347 17.3687 9.39395 17.3854 9.37386C17.4139 9.34138 17.4424 9.30832 17.4699 9.27513C17.4905 9.24977 17.5106 9.2237 17.5307 9.19777C17.5508 9.17184 17.5734 9.14221 17.594 9.11386C17.6145 9.08551 17.6383 9.05302 17.6595 9.02225C17.6754 8.99917 17.6908 8.97609 17.7062 8.95258C17.7269 8.92181 17.747 8.89047 17.7665 8.85913L11.1523 2.24577C11.0849 2.17853 11.0164 2.11342 10.9467 2.0496C10.906 2.01241 10.8639 1.97694 10.822 1.94032C10.796 1.91781 10.7706 1.89488 10.744 1.87294C10.6884 1.82621 10.6311 1.78076 10.5737 1.73531L10.5437 1.71223C10.4787 1.66194 10.4124 1.6125 10.3456 1.56506C9.2888 0.811979 8.02626 0.403809 6.69903 0.403809C5.01477 0.403809 3.43338 1.05802 2.24577 2.24577C1.05816 3.43353 0.403809 5.01478 0.403809 6.69917C0.403809 7.95958 0.770663 9.16272 1.45308 10.1864C1.61847 9.97619 1.79605 9.77592 1.98491 9.58657" fill="white"/>
</g>
<defs>
<clipPath id="clip0_5_1920">
<rect width="170.903" height="21" fill="white"/>
</clipPath>
</defs>
</svg>
